# xmcd
#
# Track frame offsets:
# 150
# 6596
# 22593
# 44263
# 56708
# 79553
# 96460
# 117371
# 138168
# 151372
# 162644
# 176920
# 187348
# 191924
# 203091
# 218481
#
# Disc length: 3064 seconds
#
#
# Revision: 0
# Processed by: cddbd v1.4PL0 Copyright (c) Steve Scherf et al.
# Submitted via: FreeRIP 2.52 
#
DISCID=e30bf610
DTITLE=many - Country Ladies
DYEAR=1900
DGENRE=Country
TTITLE0=Welcome to my world - Tammy Wynette
TTITLE1=Till I can make it on my own - Tammy Wynette
TTITLE2=Crazy/I fall to pieces/Sweet dreams/Crazy Patsy Cline Medley - Dottie West
TTITLE3=Here comes my baby - Dottie West
TTITLE4=An american Trilogy - Dottie West
TTITLE5=The night they drove old dixie down - Tanya Tucker
TTITLE6=Texas when I die- Tanya Tucker
TTITLE7=Delta Dawn - Tanya Tucker
TTITLE8=Ball and chain - Kathy Mattea
TTITLE9=Street talk - Kathy Mattea
TTITLE10=Heart of the Country- Kathy Mattea
TTITLE11=Womanhood - Tammy Wynette
TTITLE12=Your good Girl's Gonna Go Bad - Tammy Wynette
TTITLE13=D.I.V.O.R.C.E. - Tammy Wynette
TTITLE14=Crying in the rain - Tammy Wynette
TTITLE15=Stand by your man - Tammy Wynette
EXTD=
EXTT0=
EXTT1=
EXTT2=
EXTT3=
EXTT4=
EXTT5=
EXTT6=
EXTT7=
EXTT8=
EXTT9=
EXTT10=
EXTT11=
EXTT12=
EXTT13=
EXTT14=
EXTT15=
PLAYORDER=
